<svg width="105" height="106" viewBox="0 0 105 106" fill="none" xmlns="http://www.w3.org/2000/svg">
<ellipse cx="51.4615" cy="52.0914" rx="51.4615" ry="52.0914" transform="matrix(0.999961 -0.00878459 -0.0085734 -0.999963 1.88208 105.085)" fill="url(#paint0_radial_483_2)"/>
<path d="M35.9695 53.3799C36.4903 54.2132 37.0528 55.0257 37.657 55.8174C38.282 56.609 38.8861 57.3695 39.4695 58.0986C40.0736 58.807 40.6361 59.4736 41.157 60.0986C41.6986 60.7236 42.157 61.2757 42.532 61.7549C42.6361 61.8799 42.6882 62.0361 42.6882 62.2236C42.6882 62.4945 42.5736 62.7445 42.3445 62.9736C42.1153 63.2236 41.8549 63.3486 41.5632 63.3486C41.3341 63.3486 41.0424 63.1924 40.6882 62.8799C40.3549 62.5674 40.0007 62.1924 39.6257 61.7549C39.2507 61.2965 38.8757 60.8382 38.5007 60.3799C38.1466 59.9007 37.8445 59.5049 37.5945 59.1924C37.2403 58.7549 36.8341 58.2653 36.3757 57.7236C35.9174 57.182 35.4903 56.6403 35.0945 56.0986C34.6986 55.5361 34.3653 55.0049 34.0945 54.5049C33.8236 54.0049 33.6882 53.5986 33.6882 53.2861C33.6882 53.0361 33.8028 52.7132 34.032 52.3174C34.282 51.9215 34.5945 51.4945 34.9695 51.0361C35.3445 50.557 35.7611 50.057 36.2195 49.5361C36.6778 48.9945 37.1257 48.4632 37.5632 47.9424C37.8341 47.6299 38.157 47.234 38.532 46.7549C38.907 46.2757 39.282 45.8174 39.657 45.3799C40.032 44.9215 40.3861 44.5361 40.7195 44.2236C41.0528 43.9111 41.3132 43.7549 41.5007 43.7549C41.8132 43.7549 42.0841 43.8903 42.3132 44.1611C42.5424 44.4111 42.657 44.682 42.657 44.9736C42.657 45.1611 42.532 45.432 42.282 45.7861C42.0528 46.1403 41.7611 46.5361 41.407 46.9736C41.0528 47.3903 40.6778 47.8174 40.282 48.2549C39.907 48.6924 39.5841 49.0882 39.3132 49.4424C38.7299 50.1507 38.1466 50.8486 37.5632 51.5361C37.0007 52.2028 36.4695 52.8174 35.9695 53.3799ZM47.157 62.3799C46.8445 62.6299 46.532 62.7549 46.2195 62.7549C45.9278 62.7549 45.6778 62.6715 45.4695 62.5049C45.2611 62.3382 45.157 62.0986 45.157 61.7861C45.157 61.5986 45.1986 61.4215 45.282 61.2549L46.8757 58.4736C47.4382 57.4945 48.0841 56.3903 48.8132 55.1611C49.5424 53.9111 50.3028 52.6611 51.0945 51.4111C51.8861 50.1403 52.6882 48.9007 53.5007 47.6924C54.3341 46.484 55.1153 45.4215 55.8445 44.5049C55.9486 44.4424 56.0528 44.4007 56.157 44.3799C56.282 44.359 56.3966 44.3486 56.5007 44.3486C56.8549 44.3486 57.1778 44.4424 57.4695 44.6299C57.782 44.8174 57.9382 45.057 57.9382 45.3486C57.9382 45.4736 57.8861 45.609 57.782 45.7549C56.9695 46.8174 56.157 47.932 55.3445 49.0986C54.5528 50.2445 53.7924 51.3903 53.0632 52.5361C52.3341 53.6611 51.6466 54.7549 51.0007 55.8174C50.3757 56.8799 49.8028 57.8486 49.282 58.7236C48.7611 59.5986 48.3132 60.359 47.9382 61.0049C47.5841 61.6299 47.3236 62.0882 47.157 62.3799ZM67.9695 53.2549C67.4695 52.6924 66.9278 52.0778 66.3445 51.4111C65.7611 50.7445 65.1778 50.0674 64.5945 49.3799C64.032 48.6924 63.4799 48.0153 62.9382 47.3486C62.3966 46.682 61.907 46.0674 61.4695 45.5049C61.3236 45.359 61.2507 45.182 61.2507 44.9736C61.2507 44.682 61.3653 44.4111 61.5945 44.1611C61.8236 43.8903 62.0841 43.7549 62.3757 43.7549C62.5841 43.7549 62.8549 43.9111 63.1882 44.2236C63.5216 44.5361 63.8757 44.9111 64.2507 45.3486C64.6257 45.7861 65.0007 46.2445 65.3757 46.7236C65.7507 47.2028 66.0841 47.609 66.3757 47.9424C66.7716 48.4424 67.1986 48.9528 67.657 49.4736C68.1153 49.9945 68.532 50.4945 68.907 50.9736C69.282 51.432 69.5945 51.859 69.8445 52.2549C70.0945 52.6507 70.2195 52.9736 70.2195 53.2236C70.2195 53.557 70.0841 53.9736 69.8132 54.4736C69.5424 54.9736 69.2091 55.5049 68.8132 56.0674C68.4174 56.6299 67.9903 57.182 67.532 57.7236C67.0736 58.2653 66.6674 58.7549 66.3132 59.1924C66.0424 59.5049 65.7195 59.9007 65.3445 60.3799C64.9903 60.859 64.6257 61.3174 64.2507 61.7549C63.8757 62.1924 63.5111 62.5674 63.157 62.8799C62.8236 63.1924 62.5528 63.3486 62.3445 63.3486C62.0528 63.3486 61.7924 63.234 61.5632 63.0049C61.3341 62.7757 61.2195 62.5257 61.2195 62.2549C61.2195 62.0882 61.3236 61.8486 61.532 61.5361C61.7611 61.2236 62.032 60.8695 62.3445 60.4736C62.6778 60.0778 63.032 59.6715 63.407 59.2549C63.782 58.8174 64.1361 58.3903 64.4695 57.9736C65.0528 57.2445 65.6466 56.484 66.2507 55.6924C66.8549 54.8799 67.4278 54.0674 67.9695 53.2549Z" fill="white"/>
<defs>
<radialGradient id="paint0_radial_483_2" cx="0" cy="0" r="1" gradientUnits="userSpaceOnUse" gradientTransform="translate(51.4615 52.0914) rotate(89.5088) scale(52.5415 51.9063)">
<stop stop-color="#6C63FF" stop-opacity="0.79"/>
<stop offset="1" stop-color="#6C63FF" stop-opacity="0"/>
</radialGradient>
</defs>
</svg>
