<svg width="176" height="135" viewBox="0 0 176 135" fill="none" xmlns="http://www.w3.org/2000/svg">
<g clip-path="url(#clip0_430_727)">
<path d="M142.25 55.2472C140.471 27.5595 121.313 0.859985 86.1755 0.859985C54.038 0.859985 29.2546 24.8669 27.9421 56.9055C10.3588 62.4037 0.758789 81.3144 0.758789 95.0787C0.758789 116.272 18.2838 134.86 38.2588 134.86H65.3421C65.8947 134.86 66.4246 134.639 66.8153 134.247C67.206 133.854 67.4255 133.322 67.4255 132.766C67.4255 132.211 67.206 131.678 66.8153 131.286C66.4246 130.893 65.8947 130.672 65.3421 130.672H38.2588C20.5005 130.672 4.92546 114.04 4.92546 95.0787C4.92546 82.3027 16.0671 59.485 38.2588 59.485H44.5088C45.0613 59.485 45.5912 59.2644 45.9819 58.8717C46.3726 58.4791 46.5921 57.9465 46.5921 57.3912C46.5921 56.8359 46.3726 56.3034 45.9819 55.9107C45.5912 55.5181 45.0613 55.2975 44.5088 55.2975H38.2588C36.138 55.2975 34.1338 55.5362 32.1796 55.8795C33.813 30.7964 52.7838 5.04749 86.1755 5.04749C121.959 5.04749 138.259 33.267 138.259 59.485V65.7662C138.259 66.3215 138.478 66.8541 138.869 67.2467C139.26 67.6394 139.79 67.86 140.342 67.86C140.895 67.86 141.425 67.6394 141.815 67.2467C142.206 66.8541 142.425 66.3215 142.425 65.7662V59.4473C155.005 60.8334 171.592 74.4009 171.592 95.0787C171.592 111.1 156.213 130.672 138.259 130.672H107.009C93.5171 130.672 88.2588 125.388 88.2588 111.829V54.3888L105.25 71.4319C105.442 71.6322 105.672 71.792 105.926 71.902C106.18 72.0121 106.453 72.0703 106.73 72.0731C107.007 72.0759 107.281 72.0233 107.537 71.9184C107.793 71.8134 108.026 71.6583 108.222 71.462C108.418 71.2657 108.573 71.0322 108.678 70.775C108.783 70.5179 108.836 70.2422 108.834 69.9642C108.832 69.6862 108.775 69.4114 108.666 69.1558C108.558 68.9002 108.399 68.669 108.2 68.4755L89.613 49.8328C87.138 47.3538 85.2171 47.3538 82.7463 49.8328L64.1588 68.4755C63.7793 68.8704 63.5693 69.3993 63.574 69.9483C63.5788 70.4973 63.7979 71.0224 64.1842 71.4106C64.5704 71.7988 65.093 72.019 65.6392 72.0238C66.1854 72.0285 66.7117 71.8175 67.1046 71.4361L84.0921 54.3888V111.829C84.0921 127.758 91.1588 134.86 107.009 134.86H138.259C158.455 134.86 175.759 112.984 175.759 95.0787C175.759 73.4419 158.163 56.5202 142.25 55.2472Z" fill="white"/>
</g>
<defs>
<clipPath id="clip0_430_727">
<rect width="175" height="134" fill="white" transform="translate(0.758789 0.859985)"/>
</clipPath>
</defs>
</svg>
