<svg width="67" height="67" viewBox="0 0 67 67" fill="none" xmlns="http://www.w3.org/2000/svg">
<path d="M33.284 34.3506C34.0861 33.2549 35.0715 32.3311 36.2403 31.5791L34.4528 27.583L38.5434 26.0039L40.2965 30C40.984 29.8711 41.683 29.8066 42.3934 29.8066C43.1038 29.8066 43.8028 29.8711 44.4903 30L46.2434 26.0039L50.334 27.583L48.5465 31.5791C49.1423 31.9443 49.6809 32.3525 50.1621 32.8037C50.6434 33.2549 51.0903 33.7705 51.5028 34.3506L55.7653 32.6748L57.4496 36.5098L53.1871 38.1533C53.3246 38.7979 53.3934 39.4531 53.3934 40.1191C53.3934 40.7852 53.3246 41.4404 53.1871 42.085L57.4496 43.7285L55.7653 47.5635L51.5028 45.8877C51.1132 46.4463 50.6778 46.9512 50.1965 47.4023C49.7153 47.8535 49.1653 48.2725 48.5465 48.6592L50.334 52.6553L46.2434 54.2344L44.4903 50.2383C43.8028 50.3672 43.1038 50.4316 42.3934 50.4316C41.683 50.4316 40.984 50.3672 40.2965 50.2383L38.5434 54.2344L34.4528 52.6553L36.2403 48.6592C35.0715 47.9072 34.0861 46.9834 33.284 45.8877L29.0215 47.5635L27.3371 43.7285L31.5996 42.085C31.4621 41.4404 31.3934 40.7852 31.3934 40.1191C31.3934 39.4531 31.4621 38.7979 31.5996 38.1533L27.3371 36.5098L29.0215 32.6748L33.284 34.3506ZM48.9934 40.1191C48.9934 39.2598 48.8215 38.4541 48.4778 37.7021C48.134 36.9502 47.6642 36.2949 47.0684 35.7363C46.4726 35.1777 45.7736 34.7373 44.9715 34.415C44.1694 34.0928 43.3101 33.9316 42.3934 33.9316C41.4767 33.9316 40.6173 34.0928 39.8153 34.415C39.0132 34.7373 38.3142 35.1777 37.7184 35.7363C37.1226 36.2949 36.6528 36.9502 36.309 37.7021C35.9653 38.4541 35.7934 39.2598 35.7934 40.1191C35.7934 40.9785 35.9653 41.7842 36.309 42.5361C36.6528 43.2881 37.1226 43.9434 37.7184 44.502C38.3142 45.0605 39.0132 45.501 39.8153 45.8232C40.6173 46.1455 41.4767 46.3066 42.3934 46.3066C43.2871 46.3066 44.1351 46.1455 44.9371 45.8232C45.7392 45.501 46.4382 45.0605 47.034 44.502C47.6298 43.9434 48.1111 43.2773 48.4778 42.5039C48.8444 41.7305 49.0163 40.9355 48.9934 40.1191ZM9.77151 27.0029L13.8965 24.7471C13.8278 24.3604 13.7934 23.9844 13.7934 23.6191C13.7934 23.2539 13.8278 22.8779 13.8965 22.4912L9.77151 20.2354L11.9715 16.6904L16.1309 18.9141C16.7955 18.4199 17.483 18.0547 18.1934 17.8184V13.3066H22.5934V17.8184C23.3038 18.0547 23.9913 18.4199 24.6559 18.9141L28.8153 16.6904L31.0153 20.2354L26.8903 22.4912C26.959 22.8779 26.9934 23.2539 26.9934 23.6191C26.9934 23.9844 26.959 24.3604 26.8903 24.7471L31.0153 27.0029L28.8153 30.5479L24.6559 28.3242C24.3351 28.5605 24.0142 28.7646 23.6934 28.9365C23.3726 29.1084 23.0059 29.2695 22.5934 29.4199V33.9316H18.1934V29.4199C17.8038 29.291 17.4486 29.1406 17.1278 28.9688C16.8069 28.7969 16.4746 28.582 16.1309 28.3242L11.9715 30.5479L9.77151 27.0029ZM20.3934 20.5254C19.4767 20.5254 18.6976 20.8262 18.0559 21.4277C17.4142 22.0293 17.0934 22.7598 17.0934 23.6191C17.0934 24.4785 17.4142 25.209 18.0559 25.8105C18.6976 26.4121 19.4767 26.7129 20.3934 26.7129C21.3101 26.7129 22.0892 26.4121 22.7309 25.8105C23.3726 25.209 23.6934 24.4785 23.6934 23.6191C23.6934 22.7598 23.3726 22.0293 22.7309 21.4277C22.0892 20.8262 21.3101 20.5254 20.3934 20.5254ZM66.5934 0.931641V66.9316H0.593384V0.931641H66.5934ZM62.1934 5.05664H4.99338V62.8066H62.1934V5.05664Z" fill="white"/>
</svg>
