<svg width="89" height="101" viewBox="0 0 89 101" fill="none" xmlns="http://www.w3.org/2000/svg">
<g clip-path="url(#clip0_445_444)">
<path d="M44.5934 13.4316C33.2634 13.4316 24.3534 23.2129 23.1076 35.6973C20.7114 36.136 18.4642 37.3029 16.6037 39.0742C14.7433 40.8456 13.339 43.1556 12.5394 45.7598C5.77438 47.9754 0.593384 54.8316 0.593384 63.4316C0.593384 73.8191 7.95238 82.1816 17.0934 82.1816H72.0934C81.2344 82.1816 88.5934 73.8191 88.5934 63.4316C88.5934 57.9316 86.2421 53.0066 82.8349 49.5629C82.1969 38.5816 74.4886 29.8191 64.7894 29.2504C61.4784 20.0973 53.8829 13.4316 44.5934 13.4316ZM44.5934 19.6816C52.1889 19.6816 58.2609 25.2129 60.4059 33.0566L61.0109 35.3066H63.8434C71.4196 35.3066 77.5934 42.3223 77.5934 50.9316V52.4941L78.7099 53.4723C80.0574 54.6458 81.1523 56.1524 81.9118 57.8778C82.6712 59.6033 83.0753 61.5025 83.0934 63.4316C83.0934 70.5441 78.3524 75.9316 72.0934 75.9316H17.0934C10.8344 75.9316 6.09338 70.5441 6.09338 63.4316C6.09338 57.1191 10.0809 52.2191 15.1134 51.2254L16.9201 50.8348L17.2639 48.7785C18.0889 44.5691 21.3724 41.5566 25.3434 41.5566H28.0934V38.4316C28.0934 27.9004 35.3259 19.6816 44.5934 19.6816ZM44.5934 37.1629L42.6134 39.3098L31.6134 51.8098L35.5734 56.3098L41.8434 49.1723V69.6816H47.3434V49.1723L53.6134 56.3035L57.5734 51.8035L46.5734 39.3035L44.5934 37.1629Z" fill="white"/>
</g>
<defs>
<clipPath id="clip0_445_444">
<rect width="88" height="100" fill="white" transform="translate(0.593384 0.931641)"/>
</clipPath>
</defs>
</svg>
