<svg xmlns="http://www.w3.org/2000/svg" viewBox="0 0 72 72" id="Linkedin"><g fill="none" fill-rule="evenodd"><g fill="#000000" class="color000000 svgShape"><rect width="72" height="72" fill="#939b9b" rx="4" class="color117eb8 svgShape"></rect><path fill="#ffffff" d="M13.139 27.848h9.623V58.81h-9.623V27.848zm4.813-15.391c3.077 0 5.577 2.5 5.577 5.577 0 3.08-2.5 5.581-5.577 5.581a5.58 5.58 0 1 1 0-11.158zm10.846 15.39h9.23v4.231h.128c1.285-2.434 4.424-5 9.105-5 9.744 0 11.544 6.413 11.544 14.75V58.81h-9.617V43.753c0-3.59-.066-8.209-5-8.209-5.007 0-5.776 3.911-5.776 7.95V58.81h-9.615V27.848z" class="colorffffff svgShape"></path></g></g></svg>