<svg width="77" height="77" viewBox="0 0 77 77" fill="none" xmlns="http://www.w3.org/2000/svg">
<path fill-rule="evenodd" clip-rule="evenodd" d="M39.9852 16.5734C40.6495 15.9093 41.4958 15.4571 42.417 15.2739C43.3383 15.0907 44.2932 15.1847 45.161 15.5442C46.0289 15.9036 46.7706 16.5123 47.2926 17.2932C47.8145 18.0742 48.0932 18.9923 48.0934 19.9316V57.9316C48.0934 59.1914 47.593 60.3996 46.7022 61.2904C45.8114 62.1812 44.6032 62.6816 43.3434 62.6816C42.0837 62.6816 40.8755 62.1812 39.9847 61.2904C39.0939 60.3996 38.5934 59.1914 38.5934 57.9316V31.3886C37.6709 32.209 36.4652 32.638 35.2319 32.5847C33.9985 32.5315 32.8343 32.0001 31.986 31.1032C31.1377 30.2063 30.6719 29.0143 30.6873 27.7799C30.7027 26.5454 31.1981 25.3655 32.0685 24.4901L39.9852 16.5734ZM43.9499 18.4686C43.6605 18.3488 43.342 18.3174 43.0348 18.3786C42.7276 18.4398 42.4454 18.5907 42.224 18.8122L34.3074 26.7289C34.0189 27.0275 33.8593 27.4275 33.863 27.8426C33.8666 28.2577 34.0331 28.6549 34.3266 28.9484C34.6202 29.242 35.0173 29.4085 35.4325 29.4121C35.8476 29.4157 36.2476 29.2561 36.5462 28.9677L39.0574 26.4566C39.2788 26.2352 39.5609 26.0844 39.868 26.0234C40.1751 25.9623 40.4934 25.9937 40.7826 26.1135C41.0719 26.2333 41.3192 26.4362 41.4932 26.6965C41.6671 26.9568 41.76 27.2629 41.7601 27.576V57.9316C41.7601 58.3516 41.9269 58.7543 42.2238 59.0512C42.5208 59.3482 42.9235 59.515 43.3434 59.515C43.7634 59.515 44.1661 59.3482 44.463 59.0512C44.76 58.7543 44.9268 58.3516 44.9268 57.9316V19.9316C44.9268 19.6185 44.8341 19.3124 44.6602 19.052C44.4863 18.7916 44.2391 18.5886 43.9499 18.4686Z" fill="white"/>
</svg>
