<svg width="59" height="71" viewBox="0 0 59 71" fill="none" xmlns="http://www.w3.org/2000/svg">
<path fill-rule="evenodd" clip-rule="evenodd" d="M42.8853 27.1816C42.8853 19.8418 37.8707 14.0566 31.8532 14.0566H26.9135C22.1527 14.0566 18.0504 17.6558 16.517 22.7789C16.1905 23.8704 16.2365 25.0737 16.6451 26.1242C17.0537 27.1747 17.7913 27.9863 18.6956 28.3804C19.6 28.7745 20.5971 28.7189 21.4674 28.2258C22.3378 27.7327 23.0103 26.8425 23.3368 25.751C23.8371 24.0783 25.2218 22.8066 26.9135 22.8066H31.852C34.0125 22.8066 35.6353 24.8483 35.6353 27.1816C35.6353 29.515 34.0125 31.5566 31.8532 31.5566H26.9135C25.9521 31.5566 25.0301 32.0176 24.3502 32.838C23.6704 33.6585 23.2885 34.7713 23.2885 35.9316C23.2885 37.092 23.6704 38.2048 24.3502 39.0252C25.0301 39.8457 25.9521 40.3066 26.9135 40.3066H31.852C34.0125 40.3066 35.6353 42.3483 35.6353 44.6816C35.6353 47.015 34.0125 49.0566 31.8532 49.0566H26.9135C25.2218 49.0566 23.8371 47.7864 23.3368 46.1123C23.1751 45.5718 22.9268 45.0751 22.6061 44.6505C22.2853 44.2259 21.8984 43.8816 21.4674 43.6375C21.0365 43.3933 20.5699 43.254 20.0943 43.2275C19.6187 43.201 19.1434 43.2877 18.6956 43.4829C18.2478 43.678 17.8363 43.9777 17.4844 44.3648C17.1326 44.752 16.8474 45.2189 16.6451 45.7391C16.4428 46.2592 16.3274 46.8223 16.3054 47.3963C16.2834 47.9703 16.3553 48.5439 16.517 49.0844C18.0516 54.2075 22.1527 57.8066 26.9135 57.8066H31.852C37.8707 57.8066 42.8853 52.0214 42.8853 44.6816C42.8883 41.4439 41.8865 38.3221 40.0771 35.9316C41.8865 33.5411 42.8883 30.4194 42.8853 27.1816ZM31.8532 16.9733C36.5874 16.9733 40.4686 21.516 40.4686 27.1816C40.4689 28.6341 40.2091 30.0695 39.7069 31.3895C39.2046 32.7095 38.4719 33.8828 37.5589 34.8291C37.4279 34.966 37.3228 35.1353 37.2508 35.3256C37.1788 35.5158 37.1415 35.7225 37.1415 35.9316C37.1415 36.1408 37.1788 36.3475 37.2508 36.5377C37.3228 36.7279 37.4279 36.8972 37.5589 37.0341C38.4719 37.9805 39.2046 39.1538 39.7069 40.4738C40.2091 41.7938 40.4689 43.2292 40.4686 44.6816C40.4686 50.3473 36.5874 54.89 31.8532 54.89H26.9135C23.1761 54.89 19.9801 52.0666 18.7899 48.0941C18.6809 47.7302 18.6962 47.3289 18.8324 46.9786C18.9686 46.6282 19.2145 46.3575 19.5161 46.226C19.8177 46.0945 20.1501 46.113 20.4404 46.2773C20.7307 46.4417 20.955 46.7385 21.064 47.1025C21.9086 49.9273 24.1996 51.9733 26.9135 51.9733H31.852C35.3042 51.9733 38.0519 48.6746 38.0519 44.6816C38.0519 40.6887 35.3042 37.39 31.8532 37.39H26.9135C26.593 37.39 26.2857 37.2363 26.0591 36.9628C25.8325 36.6894 25.7052 36.3184 25.7052 35.9316C25.7052 35.5449 25.8325 35.1739 26.0591 34.9004C26.2857 34.627 26.593 34.4733 26.9135 34.4733H31.852C35.3042 34.4733 38.0519 31.1746 38.0519 27.1816C38.0519 23.1887 35.3042 19.89 31.8532 19.89H26.9135C24.1996 19.89 21.9086 21.936 21.064 24.7608C20.955 25.1246 20.7308 25.4212 20.4406 25.5854C20.1504 25.7497 19.8181 25.768 19.5167 25.6365C19.2153 25.505 18.9695 25.2344 18.8334 24.8842C18.6974 24.534 18.6821 24.1329 18.7911 23.7691C19.9801 19.7966 23.1773 16.9733 26.9135 16.9733H31.852H31.8532Z" fill="white"/>
</svg>
