<svg width="61" height="71" viewBox="0 0 61 71" fill="none" xmlns="http://www.w3.org/2000/svg">
<path fill-rule="evenodd" clip-rule="evenodd" d="M44.3433 27.1816C44.3433 23.7007 43.1581 20.3623 41.0483 17.9009C38.9385 15.4394 36.077 14.0566 33.0933 14.0566H28.0933C25.7667 14.0568 23.4972 14.8982 21.5974 16.4652C19.6975 18.0322 18.2607 20.2476 17.4846 22.8066C17.1531 23.9006 17.2076 25.1035 17.6363 26.1505C18.0649 27.1976 18.8325 28.0031 19.7702 28.3899C20.7079 28.7766 21.7389 28.713 22.6364 28.2129C23.5339 27.7128 24.2243 26.8173 24.5558 25.7233C24.8149 24.8703 25.2941 24.1319 25.9276 23.6096C26.5611 23.0873 27.3177 22.8068 28.0933 22.8066H33.0933C33.8531 22.8063 34.595 23.0752 35.2208 23.5778C35.8466 24.0803 36.3268 24.7928 36.5979 25.6208C36.8689 26.4488 36.918 27.3534 36.7386 28.2146C36.5592 29.0759 36.1599 29.8533 35.5933 30.4439C35.5573 30.481 35.5219 30.519 35.4871 30.5577L17.9871 50.286C17.4499 50.8918 17.0801 51.671 16.925 52.5236C16.77 53.3762 16.8368 54.2635 17.1168 55.0715C17.3968 55.8796 17.8774 56.5716 18.4968 57.059C19.1162 57.5463 19.8463 57.8066 20.5933 57.8066H40.5933C41.5879 57.8066 42.5417 57.3457 43.245 56.5252C43.9483 55.7048 44.3433 54.592 44.3433 53.4316C44.3433 52.2713 43.9483 51.1585 43.245 50.3381C42.5417 49.5176 41.5879 49.0566 40.5933 49.0566H29.8708L40.6533 36.9014C41.8164 35.672 42.7456 34.1719 43.3812 32.4977C44.0168 30.8236 44.3445 29.0126 44.3433 27.1816ZM33.0933 16.9733C34.8654 16.9728 36.5958 17.6 38.0556 18.772C39.5154 19.9439 40.6358 21.6053 41.2686 23.5364C41.9013 25.4675 42.0166 27.5772 41.5992 29.5864C41.1818 31.5956 40.2513 33.4096 38.9308 34.7883L25.9083 49.4664C25.7292 49.6684 25.6059 49.9283 25.5543 50.2126C25.5026 50.497 25.525 50.7929 25.6185 51.0623C25.712 51.3317 25.8723 51.5624 26.079 51.7247C26.2857 51.887 26.5292 51.9736 26.7783 51.9733H40.5933C40.9249 51.9733 41.2428 52.127 41.4772 52.4004C41.7117 52.6739 41.8433 53.0449 41.8433 53.4316C41.8433 53.8184 41.7117 54.1894 41.4772 54.4628C41.2428 54.7363 40.9249 54.89 40.5933 54.89H20.5933C20.3441 54.8903 20.1004 54.8036 19.8936 54.6411C19.6869 54.4786 19.5265 54.2477 19.4331 53.978C19.3397 53.7083 19.3176 53.4122 19.3695 53.1278C19.4214 52.8433 19.5451 52.5835 19.7246 52.3816L37.2246 32.6548C37.8917 31.9711 38.4259 31.1304 38.7913 30.1862C39.1567 29.242 39.3449 28.2176 39.3433 27.1816C39.3435 26.224 39.182 25.2756 38.868 24.3908C38.5539 23.506 38.0936 22.702 37.5132 22.0247C36.9328 21.3475 36.2438 20.8102 35.4854 20.4437C34.727 20.0772 33.9142 19.8885 33.0933 19.8885H28.0933C26.8006 19.8883 25.5396 20.3556 24.4839 21.2261C23.4282 22.0965 22.6297 23.3274 22.1983 24.7491C22.1472 24.9348 22.0646 25.1065 21.9555 25.2543C21.8464 25.402 21.7131 25.5227 21.5633 25.6093C21.4135 25.6959 21.2504 25.7465 21.0836 25.7582C20.9167 25.7699 20.7496 25.7425 20.592 25.6776C20.4344 25.6126 20.2896 25.5114 20.1661 25.38C20.0426 25.2486 19.9429 25.0897 19.873 24.9126C19.8031 24.7354 19.7644 24.5438 19.759 24.3489C19.7537 24.154 19.782 23.9598 19.8421 23.7779C20.4458 21.7877 21.5634 20.0647 23.0411 18.8461C24.5187 17.6276 26.2838 16.9733 28.0933 16.9733H33.0933Z" fill="white"/>
</svg>
